<svg xmlns="http://www.w3.org/2000/svg" width="33" height="40" viewBox="0 0 33 40">
  <defs>
    <style>
      .cls-1 {
        fill: #fff;
        fill-rule: evenodd;
      }
    </style>
  </defs>
  <path id="形状_30" data-name="形状 30" class="cls-1" d="M1380.7,2393.83a1.232,1.232,0,0,0-1.6-.7l-0.21.09a11.1,11.1,0,0,0-3.72,2.15,8.885,8.885,0,0,0-2.41,5.8,1.226,1.226,0,1,0,2.44.25,6.347,6.347,0,0,1,1.67-4.25,9.1,9.1,0,0,1,3.06-1.69l0.08-.04a1.247,1.247,0,0,0,.69-1.61h0Zm-15.13,1.1a1.245,1.245,0,0,0,0,2.49,7.985,7.985,0,0,1,5.88,2.35c1.72,1.77,3.16,4.88,3.4,10.24a1.226,1.226,0,1,0,2.45-.11c-0.26-5.75-1.83-9.53-4.11-11.88a10.4,10.4,0,0,0-7.62-3.09h0Zm18.37,15.82-1.5-6.81a15.823,15.823,0,1,0-22.97-14.05,5.169,5.169,0,0,0,.16,1.45c0.04,0.15.08,0.32,0.12,0.54a0.306,0.306,0,0,1-.03.23l-1.74,3.61a1.96,1.96,0,0,0,1.52,2.81l2.06,0.23a0.086,0.086,0,0,1,.08.08v3.35a3.878,3.878,0,0,0,3.85,3.91h1.21a1.243,1.243,0,0,1,1.22,1.42l-0.48,3.45a2.66,2.66,0,0,0,2.61,3.03h11.33a2.654,2.654,0,0,0,2.56-3.25h0Zm-2.65-9.01-1.65.89,1.91,8.66a0.186,0.186,0,0,1-.13.22h-11.37a0.179,0.179,0,0,1-.18-0.18v-0.02l0.47-3.45a3.709,3.709,0,0,0-3.64-4.24h-1.21a1.417,1.417,0,0,1-1.4-1.43v-3.35a2.574,2.574,0,0,0-2.26-2.56l-1.32-.14,1.41-2.94a2.793,2.793,0,0,0,.23-1.82c-0.05-.26-0.1-0.46-0.13-0.61v-0.01c-0.04-.16-0.05-0.22-0.07-0.28h0a3.062,3.062,0,0,1-.03-0.59,13.206,13.206,0,1,1,19.37,11.85h0Z" transform="translate(-1357.78 -2374)"/>
</svg>
