<svg xmlns="http://www.w3.org/2000/svg" width="31" height="31.97" viewBox="0 0 31 31.97">
  <defs>
    <style>
      .cls-1 {
        fill: #edf5fa;
        fill-rule: evenodd;
      }
    </style>
  </defs>
  <path id="形状_22" data-name="形状 22" class="cls-1" d="M323.811,2388.56a2.468,2.468,0,0,0,4.936,0h0a2.468,2.468,0,0,0-4.936,0h0Zm-2.9-20.96a1.233,1.233,0,0,1,1.7-.39h0c3.988,2.49,4.286,5.74.67,8.82-2.815,1.97-4.208,7.04-2.706,11.28,1.88,5.29,7.638,8.64,17.425,8.64,3.267,0,4.643-2.72,4.1-7.4-0.509-4.34-2.694-9.09-4.838-10.7a1.225,1.225,0,0,1-.247-1.72,1.106,1.106,0,0,1,.3-0.28c3.161-2.11,6.84-.39,10.9,4.55a1.223,1.223,0,0,1-.147,1.73,1.243,1.243,0,0,1-1.739-.14l-0.024-.03c-2.354-2.87-4.284-4.3-5.84-4.48l-0.134-.02,0.069,0.09a22.738,22.738,0,0,1,4.1,10.28l0.055,0.43c0.695,5.95-1.434,10.15-6.547,10.15-10.758,0-17.491-3.91-19.752-10.28-1.86-5.25-.143-11.49,3.522-14.04,2.24-1.92,2.125-3.18-.467-4.79a1.233,1.233,0,0,1-.393-1.7h0Zm9.443-1.17a1.238,1.238,0,0,1,1.453.97,10.944,10.944,0,0,1-.04,5.55,4.01,4.01,0,0,1-1.048,1.62l-0.286.28c-0.128.13-.363,0.35-0.442,0.43a4.109,4.109,0,0,0-1.246,3.44,1.234,1.234,0,0,1-2.468,0,6.547,6.547,0,0,1,1.773-4.98l0.341-.34c0.166-.16.4-0.38,0.408-0.39l0.247-.25a1.6,1.6,0,0,0,.379-0.59,8.732,8.732,0,0,0-.039-4.29,1.229,1.229,0,0,1,.967-1.45h0Zm7.3,1.67a1.232,1.232,0,0,1,2.015,1.41l-0.089.13c-0.034.04-.52,0.66-0.666,0.83a5.282,5.282,0,0,1-3.094,2.06,16.214,16.214,0,0,1-4.726.02,1.228,1.228,0,1,1,.164-2.45,0.175,0.175,0,0,1,.071.01,14.457,14.457,0,0,0,3.914.02,2.73,2.73,0,0,0,1.6-1.03l0.161-.19c0.127-.15.6-0.75,0.648-0.81h0Z" transform="translate(-317.5 -2366.44)"/>
</svg>
