<svg xmlns="http://www.w3.org/2000/svg" width="30" height="40" viewBox="0 0 30 40">
  <defs>
    <style>
      .cls-1 {
        fill: #fff;
        fill-rule: evenodd;
      }
    </style>
  </defs>
  <path id="形状_28" data-name="形状 28" class="cls-1" d="M1599.18,2395.45l-10.87,11.01a1.189,1.189,0,0,1-1.69,0,1.213,1.213,0,0,1,0-1.71l10.87-11.01a1.189,1.189,0,0,1,1.69,0,1.232,1.232,0,0,1,0,1.71h0Zm-27.58-11.13,5.63-5.7a1.232,1.232,0,0,0,0-1.71,1.189,1.189,0,0,0-1.69,0l-5.63,5.7a1.213,1.213,0,0,0,0,1.71A1.172,1.172,0,0,0,1571.6,2384.32Zm9.77,13.13a3.717,3.717,0,0,1-1.82.63,8.927,8.927,0,0,0,4.91,9.89,8.722,8.722,0,0,0,10.45-2.38,1.182,1.182,0,0,1,1.68-.15,1.216,1.216,0,0,1,.16,1.7,11.171,11.171,0,0,1-9.67,4.03v2.97h10a1.21,1.21,0,0,1,0,2.42H1574.7a1.21,1.21,0,0,1,0-2.42h9.99v-3.48a10.861,10.861,0,0,1-1.23-.49,11.383,11.383,0,0,1-6.23-12.7,3.54,3.54,0,0,1-.6-0.5,3.832,3.832,0,0,1-.47-4.8l-1.04-1.05a6.012,6.012,0,0,1,0-8.43,5.843,5.843,0,0,1,8.32,0l9.28,9.4a2.5,2.5,0,0,1,0,3.51l-4.85,4.91a2.433,2.433,0,0,1-3.47,0l-3.03-3.06h0Zm1.47-1.94,3.25,3.29c0,0.01.01,0.01,0.02,0.01s0.01,0.01.02,0.01a0.037,0.037,0,0,0,.03-0.01,0.02,0.02,0,0,0,.02-0.01l4.85-4.91a0.035,0.035,0,0,0,.01-0.02,0.031,0.031,0,0,0,.01-0.02,0.037,0.037,0,0,0-.01-0.03,0.035,0.035,0,0,0-.01-0.02l-9.28-9.4a3.465,3.465,0,0,0-4.94,0,3.586,3.586,0,0,0,0,5.01l1.26,1.27a3.726,3.726,0,0,1,3.87.91A3.827,3.827,0,0,1,1582.84,2395.51Zm-4.54-2.18a1.389,1.389,0,0,0,.02,1.93,1.352,1.352,0,0,0,1.93,0h0a1.354,1.354,0,0,0,.34-0.62,1.39,1.39,0,0,0-.36-1.31,1.341,1.341,0,0,0-1.93,0h0Z" transform="translate(-1569.56 -2376.56)"/>
</svg>
