<svg xmlns="http://www.w3.org/2000/svg" width="26" height="40" viewBox="0 0 26 40">
  <defs>
    <style>
      .cls-1 {
        fill: #fff;
        fill-rule: evenodd;
      }
    </style>
  </defs>
  <path id="形状_25" data-name="形状 25" class="cls-1" d="M951.756,2397.79a5.828,5.828,0,0,1-5.756-5.9,5.989,5.989,0,0,1,1.868-4.36,21.236,21.236,0,0,0,.514-4.58,12.174,12.174,0,0,0-.476-3.41,2.622,2.622,0,0,1,.238-1.96,2.55,2.55,0,0,1,1.489-1.25l3.262-.97a2.511,2.511,0,0,1,3.113,1.68,20.282,20.282,0,0,0,1.437,3.58,9.518,9.518,0,0,0,2.614,2.69,5.914,5.914,0,0,1-.313,11.81,5.559,5.559,0,0,1-2.755-.72A5.771,5.771,0,0,1,951.756,2397.79Zm1.847-20.33a0.213,0.213,0,0,0-.112,0l-3.262.99a0.381,0.381,0,0,0-.238.19,0.342,0.342,0,0,0,0,.27,14.773,14.773,0,0,1,.566,4.04,23.77,23.77,0,0,1-.655,5.45,1.116,1.116,0,0,1-.373.59,3.773,3.773,0,0,0-.56,5.21,3.549,3.549,0,0,0,5.078.58,3.763,3.763,0,0,0,1.313-2.35,1.079,1.079,0,0,1,1.223-.92,1.06,1.06,0,0,1,.594.31,3.555,3.555,0,0,0,5.118.04,3.78,3.78,0,0,0,.04-5.25,3.531,3.531,0,0,0-2.559-1.11h-0.067a1.033,1.033,0,0,1-.61-0.2,12.31,12.31,0,0,1-3.508-3.55,22.674,22.674,0,0,1-1.623-4.01A0.381,0.381,0,0,0,953.6,2377.46Zm5.868,37.79h-4.007a2.461,2.461,0,0,1-2.412-2.49v-5.92l-2.354-4.7a2.512,2.512,0,0,1,1.053-3.34,2.345,2.345,0,0,1,1.1-.27h1.921a3.043,3.043,0,0,1,2.562-1.19,3.115,3.115,0,0,1,2.569,1.19h2.182a2.448,2.448,0,0,1,2.418,2.48,2.531,2.531,0,0,1-.266,1.13l-2.346,4.7v5.91a2.462,2.462,0,0,1-2.42,2.5h0Zm-6.62-14.52a0.245,0.245,0,0,0-.239.13,0.281,0.281,0,0,0,0,.27l2.465,4.95a1.19,1.19,0,0,1,.112.5v6.18a0.268,0.268,0,0,0,.26.28h4.014a0.281,0.281,0,0,0,.276-0.28v-6.17a1.054,1.054,0,0,1,.119-0.5l2.465-4.94a0.277,0.277,0,0,0-.109-0.37,0.228,0.228,0,0,0-.137-0.04h-2.889a1.068,1.068,0,0,1-1.065-.95,1.47,1.47,0,0,0-1.579,0,1.084,1.084,0,0,1-1.065.94h-2.628Zm18.409-5.32a0.76,0.76,0,0,0-.209.03h-4.289a0.749,0.749,0,0,0-.507.52,0.769,0.769,0,0,0,.507.95h4.289a0.74,0.74,0,0,0,.417,0,0.768,0.768,0,0,0,.506-0.95,0.751,0.751,0,0,0-.714-0.55m-4.764,2.65a0.785,0.785,0,0,0-.362.1,0.777,0.777,0,0,0-.288,1.04l3.03,3.09a0.743,0.743,0,0,0,.507.21h0.03a0.705,0.705,0,0,0,.476-0.19,0.775,0.775,0,0,0,0-1.03l-3.031-3.12a0.778,0.778,0,0,0-.362-0.1m2.742-8.13a0.688,0.688,0,0,0-.362.1l-3.03,3.1a0.777,0.777,0,0,0,0,1.04,0.684,0.684,0,0,0,.5.22h0.023a0.7,0.7,0,0,0,.491-0.21l3.031-3.11a0.777,0.777,0,0,0,0-.74,0.751,0.751,0,0,0-.651-0.4" transform="translate(-946 -2375.25)"/>
</svg>
