<svg xmlns="http://www.w3.org/2000/svg" width="16" height="26" viewBox="0 0 16 26">
  <defs>
    <style>
      .cls-1 {
        fill: #033880;
        fill-rule: evenodd;
      }
    </style>
  </defs>
  <path id="形状_25" data-name="形状 25" class="cls-1" d="M729.323,448.9a3.7,3.7,0,0,1-3.542-3.841,3.988,3.988,0,0,1,1.15-2.83,14.615,14.615,0,0,0,.316-2.981,8.431,8.431,0,0,0-.293-2.215,1.779,1.779,0,0,1,.146-1.272,1.586,1.586,0,0,1,.917-0.814l2.008-.631a1.535,1.535,0,0,1,1.916,1.093,13.761,13.761,0,0,0,.885,2.329,6.11,6.11,0,0,0,1.609,1.749,3.736,3.736,0,0,1,3.359,4.029,3.681,3.681,0,0,1-3.552,3.645,3.284,3.284,0,0,1-1.7-.467A3.557,3.557,0,0,1,729.323,448.9Zm1.137-13.218a0.156,0.156,0,0,0-.068,0l-2.008.641a0.22,0.22,0,0,0-.147.3,10.059,10.059,0,0,1,.348,2.627,16.154,16.154,0,0,1-.4,3.537,0.726,0.726,0,0,1-.229.387,2.549,2.549,0,0,0-.345,3.387,2.11,2.11,0,0,0,3.126.373,2.458,2.458,0,0,0,.808-1.525,0.669,0.669,0,0,1,.753-0.6,0.642,0.642,0,0,1,.366.2,2.107,2.107,0,0,0,3.15.026,2.559,2.559,0,0,0,.025-3.414,2.146,2.146,0,0,0-1.575-.719h-0.042a0.615,0.615,0,0,1-.376-0.13,7.807,7.807,0,0,1-2.159-2.309,15.1,15.1,0,0,1-1-2.608A0.236,0.236,0,0,0,730.46,435.686Zm3.613,24.562h-2.467a1.555,1.555,0,0,1-1.485-1.614v-3.85l-1.448-3.054a1.682,1.682,0,0,1,.647-2.173A1.4,1.4,0,0,1,730,449.38h1.183a1.84,1.84,0,0,1,1.577-.769,1.862,1.862,0,0,1,1.582.769h1.343A1.556,1.556,0,0,1,737.17,451a1.726,1.726,0,0,1-.163.734l-1.444,3.054v3.84a1.561,1.561,0,0,1-1.49,1.624h0ZM730,450.81a0.164,0.164,0,0,0-.146.085,0.2,0.2,0,0,0,0,.179l1.517,3.214a0.813,0.813,0,0,1,.069.327v4.014a0.173,0.173,0,0,0,.16.184h2.471a0.177,0.177,0,0,0,.17-0.184v-4.008a0.739,0.739,0,0,1,.073-0.328l1.517-3.209a0.187,0.187,0,0,0-.067-0.242,0.157,0.157,0,0,0-.084-0.021H733.9a0.681,0.681,0,0,1-.655-0.621,0.707,0.707,0,0,0-.486-0.149,0.724,0.724,0,0,0-.486.149,0.678,0.678,0,0,1-.655.61H730Zm11.333-3.456a0.443,0.443,0,0,0-.129.019h-2.64a0.481,0.481,0,0,0-.312.339,0.5,0.5,0,0,0,.312.615h2.64a0.423,0.423,0,0,0,.257,0,0.5,0.5,0,0,0,.311-0.615,0.463,0.463,0,0,0-.439-0.358m-2.933,1.725a0.433,0.433,0,0,0-.223.063,0.518,0.518,0,0,0-.177.675l1.866,2.007a0.438,0.438,0,0,0,.311.139h0.019a0.415,0.415,0,0,0,.293-0.124,0.528,0.528,0,0,0,0-.67l-1.866-2.027a0.428,0.428,0,0,0-.223-0.063m1.688-5.285a0.423,0.423,0,0,0-.222.063L738,445.874a0.527,0.527,0,0,0,0,.675,0.414,0.414,0,0,0,.307.139h0.014a0.414,0.414,0,0,0,.3-0.134l1.866-2.021a0.536,0.536,0,0,0,0-.484,0.454,0.454,0,0,0-.4-0.255" transform="translate(-725.781 -434.25)"/>
</svg>
