<svg xmlns="http://www.w3.org/2000/svg" width="36" height="35" viewBox="0 0 36 35">
  <defs>
    <style>
      .cls-1 {
        fill: #fff;
        fill-rule: evenodd;
      }
    </style>
  </defs>
  <path id="形状_33" data-name="形状 33" class="cls-1" d="M747.9,2399.02a1.093,1.093,0,0,0-.972.58,3.639,3.639,0,0,1-2.91,2.15,1.075,1.075,0,0,0,.05,2.15h0.052l0.109-.01a5.735,5.735,0,0,0,4.714-3.49,1.071,1.071,0,0,0-.546-1.27,1.094,1.094,0,0,0-.5-0.11m14.866,5.15,0.276-.3,0.182-.21,0.269-.28,0.167-.21,0.233-.3,0.153-.23,0.2-.29,0.145-.22,0.182-.3,0.131-.22c0.051-.1.109-0.2,0.167-0.29a1.762,1.762,0,0,1,.117-0.22l0.145-.3c0.037-.07.073-0.14,0.1-0.21s0.1-.2.138-0.3l0.087-.21c0.044-.09.08-0.19,0.124-0.29s0.051-.13.08-0.2,0.073-.19.1-0.29a1.789,1.789,0,0,0,.073-0.2,1.062,1.062,0,0,1,.094-0.28,1.368,1.368,0,0,1,.059-0.19l0.08-.28a0.811,0.811,0,0,1,.051-0.18l0.065-.27,0.044-.18a1.9,1.9,0,0,1,.058-0.26,1.423,1.423,0,0,0,0-.16,1.408,1.408,0,0,1,.051-0.26v-0.15a0.534,0.534,0,0,1,.043-0.25v-1.66a18.742,18.742,0,0,0,.015-3.17c-0.953-6.69-5.7-11.39-12.775-12.53-0.407-.06-0.822-0.13-1.251-0.17a8.887,8.887,0,0,1-.931-0.06l-0.32-.02h-1.659a9.212,9.212,0,0,0-2.662.39c-4.285.84-8.178,3.26-9.683,7.73a10.015,10.015,0,0,0-.313,1.22c-0.8.41-2.234,1.13-4.5,2.26a3.01,3.01,0,0,0-1.328,4.08,2.392,2.392,0,0,0,.222.36c0.32,0.45.727,1.02,1.135,1.49l0.073,0.1c-0.16.35-.4,0.83-0.51,1.05-0.785,1.57-1.768,3.52-1.316,5.43,0.807,3.46,3.542,4.03,5.572,4.44,0.371,0.08.771,0.17,1.186,0.27,3.1,0.77,3.492.87,5.274,5.46a1.082,1.082,0,0,0,1.019.72,1.254,1.254,0,0,0,.385-0.06,1.073,1.073,0,0,0,.635-1.39h0c-1.92-4.96-2.742-5.79-6.773-6.79-0.451-.1-0.88-0.2-1.309-0.28-2.183-.45-3.39-0.8-3.863-2.82-0.269-1.17.48-2.68,1.149-4.01a10,10,0,0,0,.844-1.97,1.036,1.036,0,0,0-.2-0.86l-0.437-.57c-0.356-.45-0.778-0.99-1.084-1.43a0.874,0.874,0,0,1,.212-1.23l0.1-.06c2.83-1.43,4.365-2.18,5-2.51a1.1,1.1,0,0,0,.568-0.77v-0.19a7.582,7.582,0,0,1,.3-1.25,9.406,9.406,0,0,1,6-5.73c-0.4,5.06,1.331,9.25,4.539,10.69l0.466,0.21c2.131,0.92,4.408,2.08,4.408,4.35a4.7,4.7,0,0,1-1.971,3.73,4.034,4.034,0,0,0-1.31,1.65c-0.1.32-.363,1.18,1.819,5.61a15.057,15.057,0,0,0,2.372,4.03,1.1,1.1,0,0,0,1.537.14,1.06,1.06,0,0,0,.18-1.46,16.927,16.927,0,0,1-1.615-2.44c0.167-.05.32-0.11,0.48-0.17l0.356-.13,0.575-.23,0.3-.13,0.6-.27,0.225-.11c0.255-.12.5-0.25,0.728-0.37h0.051c0.488-.28.962-0.57,1.418-0.89l0.153-.11c0.16-.11.327-0.23,0.48-0.35l0.2-.15,0.393-.32,0.2-.18,0.342-.31a2.273,2.273,0,0,0,.2-0.19l0.305-.3Zm-8.643-1.55a6.751,6.751,0,0,0,2.67-5.31c0-3.86-3.863-5.52-5.718-6.33l-0.437-.18c-2.037-.91-3.848-4.21-3.193-9.31a16.511,16.511,0,0,1,3.579-.27h0.4l0.728,0.05c6.692,0.65,11.21,4.84,12.1,10.95a15.86,15.86,0,0,1,.16,2.72,2.016,2.016,0,0,0,0,.22v0.48a0.206,0.206,0,0,0,0,.07v0.62a0.5,0.5,0,0,1-.037.23v0.11l-0.043.24a0.8,0.8,0,0,1,0,.12,0.46,0.46,0,0,1-.051.25l-0.037.12-0.065.26a1.267,1.267,0,0,1-.037.13,0.81,0.81,0,0,1-.08.26l-0.043.15-0.088.26a0.174,0.174,0,0,1-.05.14l-0.1.28-0.066.15-0.109.27-0.073.16c-0.043.09-.08,0.18-0.131,0.27a0.854,0.854,0,0,1-.08.16,2.8,2.8,0,0,1-.138.28c-0.051.08-.058,0.11-0.094,0.17l-0.32.25-0.1.17-0.175.27-0.116.17-0.189.28-0.124.17-0.211.27-0.131.17c-0.073.09-.153,0.17-0.226,0.27l-0.152.17c-0.08.08-.168,0.17-0.248,0.26l-0.167.17-0.262.26-0.182.17c-0.094.08-.189,0.17-0.291,0.25l-0.189.16-0.313.25-0.2.16-0.335.25-0.218.15-0.371.23c-0.073.05-.148,0.1-0.226,0.15l-0.4.23-0.24.14-0.437.22-0.24.12-0.487.23-0.24.11-0.589.23-0.175.08c-0.262.1-.531,0.19-0.815,0.28a18.132,18.132,0,0,1-1.28-3.34A6.262,6.262,0,0,1,754.125,2402.62Z" transform="translate(-730.469 -2379.03)"/>
</svg>
