<svg xmlns="http://www.w3.org/2000/svg" width="24" height="23" viewBox="0 0 24 23">
  <defs>
    <style>
      .cls-1 {
        fill: #033880;
        fill-rule: evenodd;
      }
    </style>
  </defs>
  <path id="形状_33" data-name="形状 33" class="cls-1" d="M734.085,392.163a0.735,0.735,0,0,0-.648.384,2.417,2.417,0,0,1-1.939,1.412,0.706,0.706,0,1,0,.034,1.412h0.034l0.073,0a3.817,3.817,0,0,0,3.141-2.292,0.7,0.7,0,0,0-.364-0.833,0.751,0.751,0,0,0-.331-0.078m9.9,3.387,0.184-.2,0.121-.136,0.18-.184,0.111-.141,0.155-.2,0.1-.146,0.136-.192,0.1-.146,0.121-.194,0.087-.145c0.034-.066.073-0.132,0.112-0.193a1.561,1.561,0,0,1,.077-0.146l0.1-.193c0.024-.047.049-0.094,0.068-0.141s0.063-.128.092-0.193l0.058-.142c0.03-.06.054-0.122,0.083-0.188s0.034-.089.053-0.136a1.88,1.88,0,0,0,.068-0.188,1.041,1.041,0,0,0,.048-0.132,0.662,0.662,0,0,1,.064-0.184,1.155,1.155,0,0,1,.038-0.127l0.054-.179a0.557,0.557,0,0,1,.034-0.122l0.043-.174,0.029-.118a1.224,1.224,0,0,1,.039-0.174,0.9,0.9,0,0,0,0-.1,1.09,1.09,0,0,1,.034-0.174v-0.094a0.329,0.329,0,0,1,.029-0.164v-1.093a12.141,12.141,0,0,0,.01-2.08c-0.635-4.4-3.8-7.487-8.512-8.235-0.272-.043-0.548-0.085-0.834-0.113a5.528,5.528,0,0,1-.621-0.043l-0.213-.01h-1.105a6.046,6.046,0,0,0-1.774.259c-2.855.551-5.449,2.142-6.452,5.079a6.309,6.309,0,0,0-.208.8c-0.534.268-1.489,0.743-3,1.487a1.963,1.963,0,0,0-.885,2.681,2.083,2.083,0,0,0,.148.237c0.213,0.3.485,0.668,0.756,0.979l0.049,0.061c-0.107.235-.267,0.546-0.339,0.692a5.432,5.432,0,0,0-.878,3.567c0.538,2.278,2.361,2.65,3.713,2.922,0.248,0.052.514,0.109,0.79,0.175,2.065,0.5,2.327.569,3.515,3.591a0.724,0.724,0,0,0,.678.47,0.8,0.8,0,0,0,.257-0.042,0.7,0.7,0,0,0,.423-0.91v0c-1.28-3.257-1.827-3.8-4.513-4.457-0.3-.07-0.586-0.132-0.872-0.188-1.455-.292-2.259-0.523-2.574-1.854a4.458,4.458,0,0,1,.766-2.631,6.865,6.865,0,0,0,.562-1.294,0.687,0.687,0,0,0-.131-0.57l-0.291-.372c-0.238-.3-0.519-0.649-0.722-0.941a0.567,0.567,0,0,1,.141-0.807,0.658,0.658,0,0,1,.067-0.04c1.886-.941,2.909-1.435,3.335-1.652a0.71,0.71,0,0,0,.378-0.5v-0.127a5.173,5.173,0,0,1,.2-0.819,6.216,6.216,0,0,1,4-3.764c-0.266,3.327.887,6.08,3.025,7.026l0.31,0.136c1.421,0.6,2.938,1.37,2.938,2.857a3.072,3.072,0,0,1-1.314,2.452,2.66,2.66,0,0,0-.872,1.082c-0.068.212-.243,0.777,1.211,3.69a10,10,0,0,0,1.581,2.65,0.742,0.742,0,0,0,1.024.091,0.694,0.694,0,0,0,.12-0.962,10.92,10.92,0,0,1-1.076-1.6c0.111-.033.213-0.075,0.319-0.113l0.238-.084,0.383-.156,0.2-.08,0.4-.184,0.15-.066c0.17-.084.33-0.164,0.485-0.249h0.034a10.168,10.168,0,0,0,.945-0.584l0.1-.07c0.107-.075.218-0.15,0.32-0.23l0.131-.1,0.262-.212,0.135-.113,0.228-.207a1.438,1.438,0,0,0,.136-0.123l0.2-.2Zm-5.759-1.017a4.426,4.426,0,0,0,1.779-3.492c0-2.532-2.574-3.628-3.81-4.155l-0.291-.123c-1.357-.6-2.564-2.762-2.128-6.118a11.281,11.281,0,0,1,2.385-.179h0.267l0.485,0.033c4.459,0.433,7.469,3.186,8.061,7.2a10.342,10.342,0,0,1,.106,1.793q0,0.071,0,.141v0.316a0.177,0.177,0,0,0,0,.046v0.41a0.344,0.344,0,0,1-.024.151v0.07l-0.029.16a0.482,0.482,0,0,1,0,.076,0.3,0.3,0,0,1-.034.164l-0.024.08-0.044.17a0.688,0.688,0,0,1-.024.089,0.571,0.571,0,0,1-.053.169l-0.029.1-0.058.174a0.114,0.114,0,0,1-.034.094l-0.068.179-0.044.1-0.073.179-0.048.1c-0.029.061-.053,0.122-0.087,0.179a0.726,0.726,0,0,1-.054.108,2.007,2.007,0,0,1-.092.179c-0.034.056-.039,0.075-0.063,0.113l-0.213.165-0.068.113-0.116.178-0.078.113-0.126.179-0.082.113-0.141.179-0.087.113c-0.048.056-.1,0.113-0.15,0.174l-0.1.113c-0.053.056-.112,0.113-0.165,0.174l-0.111.108-0.175.174-0.121.109c-0.063.056-.126,0.112-0.194,0.165l-0.126.108-0.209.165-0.135.1-0.223.16-0.146.1-0.247.155a1.45,1.45,0,0,1-.15.094l-0.267.156-0.16.089-0.291.146-0.159.08-0.325.151-0.16.07-0.393.155-0.116.047c-0.175.066-.354,0.127-0.543,0.189a11.986,11.986,0,0,1-.853-2.193A3.779,3.779,0,0,1,738.231,394.533Z" transform="translate(-722.469 -379.031)"/>
</svg>
