<svg xmlns="http://www.w3.org/2000/svg" width="33" height="36" viewBox="0 0 33 36">
  <defs>
    <style>
      .cls-1 {
        fill: #fff;
        fill-rule: evenodd;
      }
    </style>
  </defs>
  <path id="形状_35" data-name="形状 35" class="cls-1" d="M1163.73,2417.28a1.222,1.222,0,0,1-1.19-1.2v-1.77c-2.07-.24-4.69-1.29-5.08-4.18a4.753,4.753,0,0,1,.87-3.7,4.508,4.508,0,0,1,1.82-1.36v-6.75a8.365,8.365,0,0,1-5.31,2.09,4.638,4.638,0,0,1-3.5-1.61c-1.9-2.09-2.38-5.7-2.22-8.35,0.56-7.07,4.76-9.32,8.26-9.16,3.65,0.16,4.84,3.45,5,5.14a1.132,1.132,0,0,1-1.11,1.28,1.159,1.159,0,0,1-1.27-1.12,3.068,3.068,0,0,0-2.78-2.97c-3.18-.16-5.32,2.49-5.64,6.99-0.16,2.25.24,5.14,1.59,6.59a2.14,2.14,0,0,0,1.75.8H1155c2.93,0,5.39-3.3,5.39-3.38a1.249,1.249,0,0,1,1.35-.4,1.216,1.216,0,0,1,.8,1.13v10.6a1.218,1.218,0,0,1-1.12,1.21,1.984,1.984,0,0,0-1.27.72,2.281,2.281,0,0,0-.31,1.85c0.31,2.25,3.81,2.17,3.89,2.17a1.2,1.2,0,0,1,.87.32,1.285,1.285,0,0,1,.4.88v2.9a1.31,1.31,0,0,1-1.27,1.28h0Zm3.97,0a1.23,1.23,0,0,1-1.2-1.2v-2.9a1.23,1.23,0,0,1,1.2-1.2s3.17-.08,3.41-1.85c0.32-2.41-.95-2.81-1.19-2.81a1.271,1.271,0,0,1-1.03-1.21v-10.68a1.134,1.134,0,0,1,.79-1.13,1.164,1.164,0,0,1,1.35.48s2.38,3.3,5.32,3.3h0.08a2.229,2.229,0,0,0,1.74-.8c1.27-1.45,1.67-4.34,1.51-6.59-0.32-4.5-2.54-7.15-5.71-6.99-2.46.16-2.78,2.81-2.78,2.97a1.2,1.2,0,0,1-2.38-.24,5.527,5.527,0,0,1,5.08-5.14c3.49-.16,7.7,2.09,8.17,9.24,0.16,2.65-.24,6.26-2.14,8.43a4.564,4.564,0,0,1-3.41,1.61,7.725,7.725,0,0,1-5.24-2.09v6.75c1.27,0.64,2.62,2.17,2.22,5.22-0.32,2.57-2.7,3.62-4.6,3.86v1.77a1.176,1.176,0,0,1-1.19,1.2h0Zm8.17-25.39a3.859,3.859,0,0,1-1.83-.48,5.967,5.967,0,0,0,2.62-2.01,0.87,0.87,0,0,0-.15-1.12,0.86,0.86,0,0,0-1.12.16c-1.03,1.36-2.46,1.69-4.04,2.01a1.375,1.375,0,0,1,.47-0.81,0.778,0.778,0,0,0,.08-1.12,0.761,0.761,0,0,0-1.11-.08,4.564,4.564,0,0,0-1.19,2.33,5.9,5.9,0,0,0-2.62,1.36c-1.27,1.37-.87,8.2-0.63,11.89H1165c0.23-3.69.55-10.52-.72-11.89a5.118,5.118,0,0,0-2.86-1.44,3.247,3.247,0,0,0-1.34-2.25,0.86,0.86,0,0,0-1.12.16,0.884,0.884,0,0,0,.16,1.12,1.5,1.5,0,0,1,.56.73h-0.16c-1.75-.24-3.41-0.49-4.13-1.69a0.873,0.873,0,0,0-1.11-.32,0.886,0.886,0,0,0-.32,1.12,4.5,4.5,0,0,0,2.94,2.01,5.511,5.511,0,0,1-2.38.64,0.809,0.809,0,0,0-.16,1.61h0.24a6.746,6.746,0,0,0,4.36-1.85h0.16c1.51,0.24,2.94.4,3.73,1.29,0.64,0.8.56,6.59,0.16,11.57a0.908,0.908,0,0,0,.24.64,0.864,0.864,0,0,0,.56.24h3.09a0.726,0.726,0,0,0,.56-0.24,0.908,0.908,0,0,0,.24-0.64c-0.4-4.98-.48-10.77.15-11.57,0.72-.81,1.83-0.97,3.18-1.21,0.16,0,.32-0.08.48-0.08a8.789,8.789,0,0,0,3.88,1.53,1.015,1.015,0,0,0,.48-0.08,0.843,0.843,0,0,0,.64-0.97C1176.74,2392.05,1176.35,2391.73,1175.87,2391.89Zm-15.16,16.95c-0.16,2.58,3.73,2.58,4.29,2.82a1.518,1.518,0,0,1,.63.56,3.639,3.639,0,0,1,.72-0.56c0.55-.16,4.12-0.89,3.65-2.82h-9.29Z" transform="translate(-1149.09 -2381.28)"/>
</svg>
