<svg xmlns="http://www.w3.org/2000/svg" width="24" height="19" viewBox="0 0 24 19">
  <defs>
    <style>
      .cls-1 {
        fill: #033880;
        fill-rule: evenodd;
      }
    </style>
  </defs>
  <path id="形状_29" data-name="形状 29" class="cls-1" d="M735.346,332.35a2.248,2.248,0,0,0-2.155-.579h0a0.256,0.256,0,0,0-.064.034,1.123,1.123,0,0,0-.165.138,3.566,3.566,0,0,0-.422.536c-0.21.315-.386,0.635-0.546,0.926-0.073.132-.142,0.259-0.21,0.376a0.786,0.786,0,0,1-1.014.3,6.277,6.277,0,0,1-.672-0.395l-0.021-.014c-0.223-.145-0.43-0.278-0.646-0.391a1.664,1.664,0,0,0-2.254.507,3.717,3.717,0,0,0-.4,1.52,0.71,0.71,0,0,1-.789.61,0.694,0.694,0,0,1-.639-0.753,4.961,4.961,0,0,1,.591-2.067,3.038,3.038,0,0,1,1.94-1.352,3.075,3.075,0,0,1,2.241.331c0.277,0.144.531,0.308,0.741,0.444,0.14-.249.3-0.527,0.471-0.78a4.855,4.855,0,0,1,.6-0.75,2,2,0,0,1,.886-0.544,3.726,3.726,0,0,1,3.573.958,0.663,0.663,0,0,1-.026.969,0.741,0.741,0,0,1-1.015-.025h0Zm5.038,5.542a2.09,2.09,0,0,1-1.019,1.279,2.267,2.267,0,0,1-2.239-.032,0.736,0.736,0,0,0-.987.225,0.669,0.669,0,0,0,.234.944,3.76,3.76,0,0,0,3.709.052,3.476,3.476,0,0,0,1.69-2.122,0.683,0.683,0,0,0-.512-0.837A0.722,0.722,0,0,0,740.384,337.892ZM734.919,346a6.037,6.037,0,0,0,5.167-2.96,6.373,6.373,0,0,0,3.285-1.058A3.87,3.87,0,0,0,745,338.7a6.057,6.057,0,0,0-.281-1.509c-0.114-.39-0.249-0.781-0.373-1.087,0.023-.055.048-0.111,0.075-0.172,0.056-.129.111-0.257,0.163-0.387a3.053,3.053,0,0,0,.262-1.105,5.806,5.806,0,0,0-5.81-5.679,4.3,4.3,0,0,0-3.5-1.764,4.353,4.353,0,0,0-2.541.807,5.318,5.318,0,0,0-2.831-.807,5.212,5.212,0,0,0-4.491,2.5,3.234,3.234,0,0,0-.958-0.145,3.032,3.032,0,0,0-3.1,2.963,2.836,2.836,0,0,0,.154.925,3.233,3.233,0,0,0-.768,2.087,3.375,3.375,0,0,0,2.868,3.278,5.913,5.913,0,0,0,5.678,4.018c0.065,0,.3,0,0.545,0a5.931,5.931,0,0,0,1.584,2.252A4.865,4.865,0,0,0,734.919,346Zm-8.24-15.348a3.734,3.734,0,0,1,3.482-2.281,3.814,3.814,0,0,1,2.4.838,0.741,0.741,0,0,0,.973-0.042,2.869,2.869,0,0,1,2-.8,2.833,2.833,0,0,1,2.474,1.41,0.724,0.724,0,0,0,.668.359c0.078,0,.156-0.006.235-0.006a4.409,4.409,0,0,1,4.5,4.309,1.846,1.846,0,0,1-.167.613c-0.03.075-.07,0.167-0.113,0.267-0.084.195-.18,0.417-0.237,0.588a0.657,0.657,0,0,0,.026.487,9.333,9.333,0,0,1,.416,1.164,4.988,4.988,0,0,1,.228,1.141,2.526,2.526,0,0,1-1.058,2.185,5.176,5.176,0,0,1-2.84.8h-1.524a0.686,0.686,0,1,0,0,1.371h0.191a4.566,4.566,0,0,1-3.414,1.569,3.4,3.4,0,0,1-2.289-.784,4.9,4.9,0,0,1-1.362-2.145,0.718,0.718,0,0,0-.738-0.464h-0.048l-0.113,0-0.31,0c-0.223,0-.445,0-0.512,0a4.461,4.461,0,0,1-4.406-3.422,0.71,0.71,0,0,0-.691-0.545,2,2,0,0,1-2.013-1.958,1.913,1.913,0,0,1,.66-1.441,0.665,0.665,0,0,0,.147-0.825,1.52,1.52,0,0,1-.193-0.746,1.628,1.628,0,0,1,1.661-1.592,1.711,1.711,0,0,1,.9.257,0.738,0.738,0,0,0,.994-0.2A0.674,0.674,0,0,0,726.679,330.651Zm3.85,10.584h0Z" transform="translate(-721 -327)"/>
</svg>
