<svg xmlns="http://www.w3.org/2000/svg" width="40" height="33" viewBox="0 0 40 33">
  <defs>
    <style>
      .cls-1 {
        fill: #fff;
        fill-rule: evenodd;
      }
    </style>
  </defs>
  <path id="形状_29" data-name="形状 29" class="cls-1" d="M538.911,2389.29a3.642,3.642,0,0,0-3.592-1h0a0.386,0.386,0,0,0-.108.06,1.534,1.534,0,0,0-.273.24,5.763,5.763,0,0,0-.705.93c-0.35.54-.643,1.1-0.909,1.6-0.122.24-.237,0.45-0.35,0.66a1.28,1.28,0,0,1-1.69.52,9.748,9.748,0,0,1-1.12-.69l-0.035-.02c-0.372-.25-0.718-0.48-1.078-0.68a2.613,2.613,0,0,0-1.962-.37,2.733,2.733,0,0,0-1.794,1.25,6.711,6.711,0,0,0-.674,2.64,1.2,1.2,0,0,1-2.38-.25,8.942,8.942,0,0,1,.986-3.59,5.077,5.077,0,0,1,3.233-2.34,4.933,4.933,0,0,1,3.736.57,14.328,14.328,0,0,1,1.235.77c0.232-.43.5-0.91,0.783-1.35a8.47,8.47,0,0,1,1-1.31,3.382,3.382,0,0,1,1.477-.94,6.059,6.059,0,0,1,5.955,1.66,1.194,1.194,0,1,1-1.735,1.64h0Zm8.4,9.63a3.589,3.589,0,0,1-1.7,2.22,3.643,3.643,0,0,1-3.732-.06,1.2,1.2,0,0,0-1.645.39,1.187,1.187,0,0,0,.39,1.64,6.033,6.033,0,0,0,6.182.09,5.967,5.967,0,0,0,2.816-3.68A1.195,1.195,0,1,0,547.307,2398.92ZM538.2,2413a10,10,0,0,0,8.612-5.14,10.342,10.342,0,0,0,5.475-1.84,6.816,6.816,0,0,0,2.715-5.69,10.973,10.973,0,0,0-.469-2.63c-0.189-.67-0.414-1.35-0.62-1.88q0.057-.15.123-0.3c0.1-.23.186-0.45,0.273-0.68a5.451,5.451,0,0,0,.437-1.91,9.881,9.881,0,0,0-9.684-9.87,7.1,7.1,0,0,0-10.074-1.66,8.64,8.64,0,0,0-12.2,2.93,5.393,5.393,0,0,0-1.6-.25,5.157,5.157,0,0,0-5.161,5.15,5.092,5.092,0,0,0,.257,1.6,5.779,5.779,0,0,0,3.5,9.32,9.894,9.894,0,0,0,9.464,6.98c0.108,0,.506,0,0.909-0.01a10.385,10.385,0,0,0,2.639,3.92A7.933,7.933,0,0,0,538.2,2413Zm-13.733-26.66a6.228,6.228,0,0,1,9.807-2.5,1.2,1.2,0,0,0,1.622-.08,4.7,4.7,0,0,1,7.45,1.07,1.192,1.192,0,0,0,1.114.62c0.131,0,.261-0.01.392-0.01a7.5,7.5,0,0,1,7.5,7.49,3.278,3.278,0,0,1-.278,1.06c-0.05.13-.117,0.29-0.188,0.47-0.14.33-.3,0.72-0.395,1.02a1.161,1.161,0,0,0,.044.84,16.957,16.957,0,0,1,.692,2.02,8.908,8.908,0,0,1,.381,1.99,4.445,4.445,0,0,1-1.764,3.79,8.329,8.329,0,0,1-4.733,1.39h-2.539a1.19,1.19,0,1,0,0,2.38h0.317a7.478,7.478,0,0,1-5.69,2.73,5.535,5.535,0,0,1-3.814-1.36,8.577,8.577,0,0,1-2.271-3.73,1.2,1.2,0,0,0-1.23-.81,0.038,0.038,0,0,0-.019.01h-0.249c-0.149.01-.331,0.01-0.516,0.01-0.372.01-.742,0.01-0.854,0.01a7.5,7.5,0,0,1-7.342-5.94,1.2,1.2,0,0,0-1.153-.95,3.4,3.4,0,0,1-2.256-5.91,1.182,1.182,0,0,0,.246-1.43,2.723,2.723,0,0,1-.322-1.29,2.765,2.765,0,0,1,4.277-2.32,1.2,1.2,0,0,0,1.656-.35A1.092,1.092,0,0,0,524.465,2386.34Zm6.418,18.38h0Z" transform="translate(-515 -2380)"/>
</svg>
