<svg xmlns="http://www.w3.org/2000/svg" width="19" height="24" viewBox="0 0 19 24">
  <defs>
    <style>
      .cls-1 {
        fill: #033880;
        fill-rule: evenodd;
      }
    </style>
  </defs>
  <path id="形状_30" data-name="形状 30" class="cls-1" d="M985.353,333.9a0.7,0.7,0,0,0-.918-0.417l-0.124.053a6.244,6.244,0,0,0-2.141,1.292,5.419,5.419,0,0,0-1.393,3.477,0.737,0.737,0,0,0,.632.817,0.719,0.719,0,0,0,.774-0.669,3.919,3.919,0,0,1,.963-2.546,5.167,5.167,0,0,1,1.764-1.016l0.05-.021a0.761,0.761,0,0,0,.393-0.97h0Zm-8.715.662a0.748,0.748,0,0,0,0,1.493,4.5,4.5,0,0,1,3.384,1.411c0.992,1.06,1.823,2.925,1.961,6.145a0.723,0.723,0,0,0,.738.712,0.732,0.732,0,0,0,.674-0.78c-0.149-3.451-1.052-5.72-2.368-7.127a5.866,5.866,0,0,0-4.389-1.854h0Zm10.586,9.492-0.866-4.085a9.617,9.617,0,0,0,4.8-8.431,9.034,9.034,0,1,0-18.04,0,3.133,3.133,0,0,0,.091.87c0.02,0.089.043,0.191,0.069,0.325a0.223,0.223,0,0,1-.016.135l-1,2.169a1.179,1.179,0,0,0,.875,1.682l1.188,0.138a0.052,0.052,0,0,1,.045.053v2.01a2.285,2.285,0,0,0,2.22,2.346h0.7a0.734,0.734,0,0,1,.7.85l-0.271,2.067a1.571,1.571,0,0,0,1.5,1.82h6.532a1.579,1.579,0,0,0,1.477-1.949h0Zm-1.528-5.405-0.953.534,1.1,5.2a0.106,0.106,0,0,1-.076.127l-0.022,0h-6.532a0.1,0.1,0,0,1-.1-0.106,0.076,0.076,0,0,1,0-.015l0.272-2.068a2.2,2.2,0,0,0-2.1-2.548h-0.7a0.831,0.831,0,0,1-.807-0.853v-2.01a1.518,1.518,0,0,0-1.3-1.537l-0.759-.088,0.816-1.759a1.8,1.8,0,0,0,.131-1.1c-0.03-.154-0.057-0.274-0.077-0.363v0c-0.022-.1-0.03-0.134-0.036-0.168h0a1.993,1.993,0,0,1-.017-0.356,7.619,7.619,0,1,1,15.214,0,8.108,8.108,0,0,1-4.053,7.111h0Z" transform="translate(-972.156 -322)"/>
</svg>
