<svg xmlns="http://www.w3.org/2000/svg" width="18" height="26.032" viewBox="0 0 18 26.032">
  <defs>
    <style>
      .cls-1 {
        fill: #033880;
        fill-rule: evenodd;
      }
    </style>
  </defs>
  <path id="形状_28" data-name="形状 28" class="cls-1" d="M989.926,388.854l-6.533,7.163a0.676,0.676,0,0,1-1.016,0,0.843,0.843,0,0,1,0-1.115l6.533-7.162a0.674,0.674,0,0,1,1.016,0,0.841,0.841,0,0,1,0,1.114h0Zm-16.578-7.243,3.383-3.71a0.841,0.841,0,0,0,0-1.114,0.674,0.674,0,0,0-1.016,0l-3.384,3.709a0.845,0.845,0,0,0,0,1.115A0.677,0.677,0,0,0,973.348,381.611Zm5.876,8.542a2.133,2.133,0,0,1-1.094.411A5.963,5.963,0,0,0,981.082,397a4.984,4.984,0,0,0,6.28-1.549,0.677,0.677,0,0,1,1.012-.1,0.842,0.842,0,0,1,.092,1.11,6.469,6.469,0,0,1-5.809,2.62v1.933h6.007a0.791,0.791,0,0,1,0,1.575h-13.45a0.791,0.791,0,0,1,0-1.575h6.006v-2.263a6.216,6.216,0,0,1-.742-0.32,7.591,7.591,0,0,1-3.741-8.263,2.391,2.391,0,0,1-.365-0.325,2.659,2.659,0,0,1-.281-3.127l-0.625-.685a4.147,4.147,0,0,1,0-5.484,3.322,3.322,0,0,1,5,0l5.576,6.114a1.732,1.732,0,0,1,0,2.29l-2.914,3.193a1.385,1.385,0,0,1-2.088,0l-1.818-1.993h0Zm0.883-1.26,1.951,2.139a0.032,0.032,0,0,0,.028.013,0.045,0.045,0,0,0,.016,0,0.038,0.038,0,0,0,.012-0.01l2.913-3.193a0.042,0.042,0,0,0,.009-0.014,0.051,0.051,0,0,0,0-.017,0.047,0.047,0,0,0,0-.017,0.034,0.034,0,0,0-.009-0.014l-5.575-6.114a1.971,1.971,0,0,0-2.969,0,2.462,2.462,0,0,0,0,3.256l0.757,0.83a2.12,2.12,0,0,1,2.326.594A2.65,2.65,0,0,1,980.107,388.893Zm-2.732-1.421a0.964,0.964,0,0,0,.013,1.258,0.772,0.772,0,0,0,1.162,0v0a0.935,0.935,0,0,0,.2-0.406,0.961,0.961,0,0,0-.217-0.853,0.773,0.773,0,0,0-.778-0.237,0.8,0.8,0,0,0-.383.237Z" transform="translate(-972.156 -376.562)"/>
</svg>
