<svg xmlns="http://www.w3.org/2000/svg" width="21.969" height="24" viewBox="0 0 21.969 24">
  <defs>
    <style>
      .cls-1 {
        fill: #033880;
        fill-rule: evenodd;
      }
    </style>
  </defs>
  <path id="形状_35" data-name="形状 35" class="cls-1" d="M979.849,290.281a0.819,0.819,0,0,1-.794-0.8V288.3c-1.376-.161-3.122-0.857-3.386-2.785a3.151,3.151,0,0,1,.582-2.464,3.013,3.013,0,0,1,1.217-.911v-4.5a5.59,5.59,0,0,1-3.546,1.393,3.086,3.086,0,0,1-2.328-1.071c-1.27-1.393-1.587-3.8-1.482-5.571,0.371-4.713,3.175-6.213,5.5-6.106a3.6,3.6,0,0,1,3.333,3.428,0.755,0.755,0,0,1-.741.857,0.779,0.779,0,0,1-.846-0.75,2.045,2.045,0,0,0-1.852-1.982c-2.117-.107-3.546,1.661-3.757,4.66-0.106,1.5.159,3.428,1.058,4.392a1.422,1.422,0,0,0,1.164.536h0.053c1.958,0,3.6-2.2,3.6-2.249a0.826,0.826,0,0,1,.9-0.268,0.8,0.8,0,0,1,.529.75v7.07a0.809,0.809,0,0,1-.741.8,1.311,1.311,0,0,0-.846.482,1.5,1.5,0,0,0-.212,1.232c0.212,1.5,2.54,1.446,2.593,1.446a0.794,0.794,0,0,1,.582.214,0.864,0.864,0,0,1,.264.59v1.928a0.872,0.872,0,0,1-.846.857h0Zm2.646,0a0.819,0.819,0,0,1-.794-0.8v-1.928a0.819,0.819,0,0,1,.794-0.8s2.116-.054,2.275-1.232c0.212-1.607-.635-1.875-0.794-1.875a0.853,0.853,0,0,1-.688-0.8v-7.124a0.756,0.756,0,0,1,.53-0.75,0.774,0.774,0,0,1,.9.321s1.588,2.2,3.545,2.2h0.053a1.491,1.491,0,0,0,1.164-.536c0.847-.964,1.112-2.892,1.006-4.392-0.212-3-1.693-4.767-3.81-4.66a2.117,2.117,0,0,0-1.852,1.982,0.773,0.773,0,0,1-.847.7,0.784,0.784,0,0,1-.741-0.857,3.7,3.7,0,0,1,3.387-3.428c2.328-.107,5.133,1.393,5.45,6.16,0.106,1.767-.158,4.178-1.428,5.624a3.062,3.062,0,0,1-2.276,1.071,5.165,5.165,0,0,1-3.492-1.393v4.5c0.846,0.428,1.746,1.446,1.481,3.481a3.2,3.2,0,0,1-3.069,2.571v1.178a0.783,0.783,0,0,1-.793.8h0Zm5.45-16.926a2.545,2.545,0,0,1-1.217-.321,4.055,4.055,0,0,0,1.746-1.339,0.58,0.58,0,0,0-.106-0.75,0.564,0.564,0,0,0-.741.107,3.979,3.979,0,0,1-2.7,1.339,0.91,0.91,0,0,1,.317-0.535,0.525,0.525,0,0,0,.053-0.75,0.508,0.508,0,0,0-.741-0.054,3.028,3.028,0,0,0-.793,1.553,3.939,3.939,0,0,0-1.747.911c-0.846.911-.582,5.463-0.423,7.927h-0.9c0.159-2.464.371-7.016-.476-7.927a3.422,3.422,0,0,0-1.905-.964,2.205,2.205,0,0,0-.9-1.5,0.565,0.565,0,0,0-.741.107,0.581,0.581,0,0,0,.106.75,0.992,0.992,0,0,1,.37.482h-0.106c-1.164-.161-2.275-0.321-2.751-1.125a0.582,0.582,0,0,0-.741-0.214,0.6,0.6,0,0,0-.212.75,3,3,0,0,0,1.958,1.339,3.671,3.671,0,0,1-1.587.428,0.539,0.539,0,0,0-.106,1.072h0.159a4.512,4.512,0,0,0,2.91-1.232h0.106a4.188,4.188,0,0,1,2.487.857c0.423,0.535.37,4.392,0.106,7.713a0.615,0.615,0,0,0,.158.428,0.571,0.571,0,0,0,.371.161h2.063a0.479,0.479,0,0,0,.371-0.161,0.612,0.612,0,0,0,.159-0.428c-0.265-3.321-.318-7.178.105-7.713a3.486,3.486,0,0,1,2.117-.8c0.106,0,.212-0.053.318-0.053a5.856,5.856,0,0,0,2.592,1.018,0.661,0.661,0,0,0,.318-0.054,0.556,0.556,0,0,0,.423-0.643C988.527,273.462,988.262,273.248,987.945,273.355Zm-10.107,11.3c-0.106,1.714,2.487,1.714,2.857,1.875a1,1,0,0,1,.424.374,2.4,2.4,0,0,1,.476-0.374c0.37-.108,2.752-0.59,2.434-1.875h-6.191Z" transform="translate(-970.125 -266.281)"/>
</svg>
